<?xml version="1.0" encoding="UTF-8"?><svg id="Layer_2" xmlns="http://www.w3.org/2000/svg" viewBox="0 0 1715.12 250.46"><g id="Layer_1-2"><g><path d="M1005.6,200.43l-.02,.07c18.12-5,30.36,7.23,25.35,25.36l.07-.02c-5.95,18.88,7.29,27.53,31.84,23.74,24.52-3.69,43.78-16.7,43.17-33.46-.39-16.67-15.3-30.36-33.45-28.6v-.06c-18.85,2.03-30.63-9.75-28.6-28.6h-.06c1.76-18.15-11.92-33.06-28.59-33.45-16.75-.61-29.77,18.66-33.46,43.18-3.8,24.55,4.87,37.78,23.74,31.83Z"/><path d="M1075.82,125.35s0,.04,0,.06c16.7,.06,30.16,13.52,30.22,30.22h.06c.06-16.7,13.52-30.16,30.22-30.22v-.06c-16.7-.06-30.16-13.52-30.22-30.22h-.06c-.06,16.7-13.52,30.16-30.22,30.21Z"/><path d="M1015.32,125.34c16.67-.39,30.35-15.3,28.59-33.45h.06c-2.03-18.85,9.75-30.63,28.6-28.6v-.06c18.15,1.76,33.06-11.92,33.45-28.59,.6-16.76-18.66-29.77-43.17-33.46-24.55-3.8-37.79,4.87-31.84,23.74-.03,0-.05-.01-.07-.02,5,18.12-7.23,30.36-25.36,25.35l.02,.07c-18.88-5.95-27.54,7.29-23.74,31.84,3.69,24.52,16.7,43.78,33.46,43.17Z"/><path d="M925.55,125.42c-16.67,.39-30.35,15.3-28.6,33.46-.02,0-.04,0-.06,0,2.04,18.84-9.75,30.63-28.6,28.6v.06c-18.15-1.76-33.06,11.93-33.45,28.6-.61,16.75,18.65,29.76,43.18,33.46,24.55,3.79,37.78-4.87,31.84-23.74l.07,.02c-5-18.13,7.23-30.36,25.36-25.36l-.02-.07c18.88,5.95,27.54-7.29,23.74-31.84-3.69-24.53-16.7-43.78-33.46-43.18Z"/><path d="M744.06,125.34c16.67-.39,30.35-15.3,28.59-33.45h.06c-2.03-18.85,9.75-30.63,28.6-28.6v-.06c18.15,1.76,33.06-11.92,33.45-28.59,.6-16.76-18.66-29.77-43.17-33.46-24.55-3.8-37.79,4.87-31.84,23.74-.03,0-.05-.01-.07-.02,5,18.12-7.23,30.36-25.36,25.35l.02,.07c-18.88-5.95-27.54,7.29-23.74,31.84,3.69,24.52,16.7,43.78,33.46,43.17Z"/><path d="M804.56,125.35s0,.04,0,.06c16.7,.06,30.16,13.52,30.22,30.22h.06c.06-16.7,13.52-30.16,30.22-30.22v-.06c-16.7-.06-30.16-13.52-30.22-30.22h-.06c-.06,16.7-13.52,30.16-30.22,30.21Z"/><path d="M868.3,63.23s0,.04,0,.06c18.84-2.03,30.63,9.75,28.6,28.6h.06c-1.76,18.14,11.92,33.05,28.6,33.45,16.75,.61,29.76-18.65,33.46-43.17,3.8-24.55-4.87-37.78-23.74-31.84l.02-.07c-18.13,5-30.36-7.23-25.36-25.35l-.07,.02c5.94-18.88-7.29-27.54-31.83-23.75-24.53,3.7-43.78,16.71-43.18,33.46,.39,16.67,15.3,30.35,33.46,28.59Z"/><path d="M1488.54,72.33s.01,.04,.02,.07c.82,.25,1.64,.54,2.46,.84,.24,.13,.51,.24,.81,.3,15.41,6.03,29.43,20.61,30.67,35.66h.05c-1.81-16.69,8.64-27.13,25.33-25.33,16.67,1.66,29.87,13.39,29.63,28.2-.05,14.79-11.97,26.71-26.76,26.76v.06c14.79,.06,26.71,11.97,26.76,26.77,.24,14.81-12.96,26.54-29.63,28.2,0,.02,0,.04,0,.06-16.11,1.32-31.69,17.29-36.81,33.94-5.27,16.72,6.46,24.39,28.2,21.03,21.61-3.25,38.6-14.68,38.24-29.41,.02,0,.04,0,.07,0-.36,14.73,16.63,26.16,38.24,29.41,21.74,3.36,33.46-4.31,28.2-21.03-5.13-16.65-20.7-32.62-36.81-33.94,0-.02,0-.04,0-.06-.27-.03-.54-.06-.81-.1-.26-.08-.53-.14-.83-.17-.23-.02-.46-.03-.69-.04-15.56-2.47-27.53-13.77-27.31-27.89,.06-14.79,11.97-26.71,26.77-26.77v-.06c-14.8-.05-26.71-11.97-26.77-26.76-.24-14.82,12.96-26.54,29.64-28.2,16.69-1.8,27.13,8.64,25.33,25.33h.05c1.32-16.11,17.29-31.69,33.94-36.82,0-.02,.01-.04,.02-.07,16.13-4.19,34.08-26.59,43.98-48.28,10-21.77,3.61-28.16-18.16-18.16-21.7,9.91-44.09,27.85-48.28,43.99l-.07,.02c5.27-16.72-6.46-24.39-28.2-21.03-21.49,3.24-38.41,14.55-38.24,29.17-.02,0-.04,.01-.07,.02,.18-14.62-16.74-25.95-38.24-29.18-21.75-3.36-33.47,4.31-28.2,21.03l-.07-.02c-4.19-16.13-26.59-34.08-48.28-43.98-21.77-10-28.16-3.61-18.16,18.16,9.9,21.69,27.86,44.09,43.98,48.28Z"/><path d="M337.7,178.45c-13.98-.73-24.38-11.12-25.11-25.1h-.07c-.73,13.98-11.12,24.38-25.1,25.1,0,.02,0,.05,0,.07,13.98,.73,24.38,11.13,25.1,25.11h.07c.73-13.98,11.13-24.38,25.11-25.11,0-.02,0-.05,0-.07Z"/><path d="M1139.56,63.23s0,.04,0,.06c18.84-2.03,30.63,9.75,28.6,28.6h.06c-1.76,18.14,11.92,33.05,28.6,33.45,16.75,.61,29.76-18.65,33.46-43.17,3.8-24.55-4.87-37.78-23.74-31.84l.02-.07c-18.13,5-30.36-7.23-25.36-25.35l-.07,.02c5.94-18.88-7.29-27.54-31.83-23.75-24.53,3.7-43.78,16.71-43.18,33.46,.39,16.67,15.3,30.35,33.46,28.59Z"/><path d="M1196.81,125.42c-16.67,.39-30.35,15.3-28.6,33.46-.02,0-.04,0-.06,0,2.04,18.84-9.75,30.63-28.6,28.6v.06c-18.15-1.76-33.06,11.93-33.45,28.6-.61,16.75,18.65,29.76,43.18,33.46,24.55,3.79,37.78-4.87,31.84-23.74l.07,.02c-5-18.13,7.23-30.36,25.36-25.36l-.02-.07c18.88,5.95,27.54-7.29,23.74-31.84-3.69-24.53-16.7-43.78-33.46-43.18Z"/><g><path d="M1280.21,66.02v.06c-15.52-5.84-23.94,3.27-21.54,23.7,2.29,20.38,13.1,36.19,26.89,35.55,13.74-.33,24.91-11.9,24.21-26.07h.05c-.95-14.69,10.04-23.81,25.55-23.7,15.51-.12,26.5,9,25.55,23.7-.79,14.65-11.79,26.22-25.55,26.07v.05c-13.76-.15-24.75,11.41-25.55,26.07-.95,14.69,10.04,23.81,25.55,23.7v.05c14.96-.2,28.34,13.82,30.88,28.44,.02,0,.04,0,.06,.01,1.7,14.25,20.04,29.41,40.22,40.3,20.22,11.04,28.64,8.62,21.55-11.84-6.99-20.34-22.57-42.85-37.55-47.41,0-.02,0-.04-.01-.06-15.49-5.61-29.05-18.97-29.55-33.18-.7-14.17,10.48-25.74,24.22-26.07v-.06c13.78,.64,24.59-15.17,26.88-35.55,2.4-20.43-6.01-29.54-21.55-23.7v-.06c14.99-4.56,30.57-27.07,37.56-47.4,7.09-20.47-1.32-22.89-21.55-11.85-20.18,10.89-38.52,26.05-40.22,40.3h-.06c2.7-14.73-10.68-21.39-30.88-21.32-19.76-.07-32.98,6.31-31.03,20.37-.02,0-.04,0-.06,.02-2.36-13.98-20.33-28.72-40.07-39.37-20.23-11.04-28.64-8.62-21.55,11.85,6.98,20.34,22.57,42.85,37.56,47.41Z"/><path d="M1285.56,125.39c-13.79-.64-24.59,15.17-26.89,35.56-2.4,20.42,6.01,29.54,21.55,23.7,15.49-5.61,29.05-18.98,29.55-33.18,.7-14.17-10.48-25.74-24.21-26.07Z"/><path d="M1264.21,243.95c20.18-10.89,38.52-26.05,40.22-40.3,1.9-14.13-9.27-23.9-24.21-18.95-14.98,4.56-30.57,27.07-37.56,47.41-7.09,20.46,1.32,22.88,21.55,11.84Z"/></g><path d="M734.34,200.43l-.02,.07c18.12-5,30.36,7.23,25.35,25.36l.07-.02c-5.95,18.88,7.29,27.53,31.84,23.74,24.52-3.69,43.78-16.7,43.17-33.46-.39-16.67-15.3-30.36-33.45-28.6v-.06c-18.85,2.03-30.63-9.75-28.6-28.6h-.06c1.76-18.15-11.92-33.06-28.59-33.45-16.75-.61-29.77,18.66-33.46,43.18-3.8,24.55,4.87,37.78,23.74,31.83Z"/><g><path d="M627.1,98.04s.03,0,.05,0c-1.31,14.84,9.92,27.02,23.63,27.31,13.76,.45,24.49-14.98,27.25-34.57,2.83-19.62-4.66-30.55-20-26.11,0-.02,.01-.04,.01-.06,14.85-3.54,30.99-23.47,39.33-43.05,8.42-19.65,2.01-26.07-17.58-17.63-19.54,8.36-39.42,24.54-42.95,39.42h-.06c-4.32,15.33-18.46,29.84-33.29,30.96v.05c15.32-1.52,25.14,8.32,23.62,23.68Z"/><path d="M494.37,64.61s0,.04,.01,.06c-15.35-4.44-22.84,6.48-20.01,26.11,2.75,19.6,13.49,35.03,27.25,34.57,13.7-.29,24.93-12.47,23.62-27.31h.05c1.4,15.34,12.3,27.52,26.04,27.32,1.29,0,2.55-.11,3.78-.3-1.23,.19-2.5,.29-3.78,.3,0,.02,0,.03,0,.05,13.72,.04,24.79,11.14,24.83,24.89h.05c-.2,13.77,11.94,24.7,27.25,26.1v.05c14.83,1.11,28.98,15.62,33.29,30.94,.02,0,.04,.01,.06,.02,3.53,14.88,23.41,31.06,42.95,39.42,19.59,8.43,26,2.01,17.59-17.63-8.34-19.58-24.48-39.51-39.33-43.05,0-.02-.01-.04-.01-.06,15.35,4.45,22.84-6.48,20-26.1-2.75-19.6-13.49-35.03-27.25-34.58-13.7,.29-24.94,12.47-23.63,27.31h-.05c-1.4-15.35-12.3-27.52-26.04-27.32v-.05c-13.72-.04-24.79-11.14-24.84-24.89h-.05c.2-13.78-11.94-24.7-27.25-26.1v-.05c-14.84-1.11-28.98-15.63-33.3-30.94-.02,0-.04,0-.06-.01-3.53-14.89-23.41-31.06-42.95-39.42-19.6-8.44-26.01-2.02-17.59,17.63,8.34,19.58,24.48,39.51,39.33,43.05Z"/><path d="M472.63,246.83c19.53-8.36,39.42-24.53,42.95-39.42,.02,0,.04-.01,.06-.02,4.32-15.32,18.46-29.83,33.29-30.95v-.05c-15.32,1.52-25.14-8.32-23.62-23.68h-.05c1.31-14.84-9.92-27.02-23.62-27.31-13.77-.45-24.5,14.97-27.25,34.58-2.83,19.62,4.66,30.54,20.01,26.1,0,.02,0,.04-.01,.06-14.85,3.54-30.99,23.47-39.33,43.05-8.41,19.64-2.01,26.06,17.59,17.63Z"/></g><path d="M353.19,147.63l-.07,.19c.03-.07,.06-.13,.09-.2h-.02Z"/><path d="M350.63,159.06s-.01-.02-.02-.04c0,.23,0,.46,0,.69,0-.22,0-.44,0-.66Z"/><path d="M261.05,159.28v.02c0,.14,0,.28,0,.42,0-.15,0-.29,0-.44Z"/><path d="M155.69,90.02c0,.15,0,.29,0,.44v-.02c0-.14,0-.28,0-.42Z"/><path d="M66.12,90.02c0,.22,0,.44,0,.66,0,.01,.01,.02,.02,.04,0-.23,0-.46,0-.69Z"/><path d="M63.63,101.91c-.03,.07-.06,.13-.09,.2h.02c.02-.07,.05-.13,.07-.2Z"/><path d="M236.62,1.32c-19.67,4.88-39.73,15.49-47.65,32.74-.53,.69-.13,.13-.3,.33-6.81,14.25-20.3,27.68-36.89,28.2,0,.04-.03-.01,.01,.09,16.99,.61,22.31,12.01,20.58,27.29-1.73,15.28-9.05,26.98-23.58,32.1-.04-.07,0,.02-.01,0-13.84,4.78-19.66,16.14-21.08,29.59-1.42-13.46-7.24-24.81-21.08-29.59-.01,0,.03-.08-.01,0-14.53-5.12-21.85-16.82-23.58-32.1-1.73-15.28,3.59-26.69,20.58-27.29,.04-.1,0-.05,.01-.09-16.59-.52-30.08-13.95-36.89-28.2-.17-.2,.23,.37-.3-.33C58.53,16.81,38.48,6.2,18.8,1.32-.87-3.56-4.72,5.46,5.46,22.34c10.18,16.86,23.48,33.44,43.48,36.83,0,.02-.02,.05-.06,.1-17.96-1.91-19.35,13.97-17.26,27.89,2.09,13.92,8.33,30.38,24.59,29.38,4.11-.25,7.27,.42,9.82,1.77,3.69,1.95,5.63,4.91,6.19,5.79,4.85,7.63,1.4,16.73,.94,17.9-.96,2.04-2.63,6.31-2.17,11.79,0,.03,0,.08,.01,.15,0,0,.51,5.67,4.02,11.03,3.65,5.56,14.88,10.56,18,12.1,0,0,28.02,13.89,34.14,67.27,.11,1.3,.23,2.6,.37,3.92,.06,.58,.12,1.17,.18,1.74,.06-.58,.12-1.16,.18-1.74,.13-1.32,.25-2.62,.37-3.92,6.11-53.38,34.14-67.27,34.14-67.27,3.12-1.54,14.35-6.55,18-12.1,3.52-5.36,4.02-11.03,4.02-11.03,0-.06,0-.11,.01-.15,.46-5.48-1.21-9.75-2.17-11.79-.46-1.16-3.91-10.27,.94-17.9,.56-.88,2.5-3.83,6.19-5.79,2.56-1.35,5.71-2.02,9.82-1.77,16.26,.99,22.5-15.46,24.59-29.38,2.09-13.92,.7-29.8-17.26-27.89-.04-.04-.05-.07-.06-.1,20.01-3.38,33.31-19.96,43.48-36.83,10.18-16.88,6.33-25.9-13.35-21.02ZM82.98,90.84c0-.22,0-.44,0-.66,0,.23,0,.46,0,.69,0-.01-.01-.03-.02-.04Zm89.44,.04c0-.23,0-.46,0-.69,0,.22,0,.44,0,.66,0,.01-.01,.02-.02,.04Z"/><path d="M203.38,248.67c19.67-4.88,39.73-15.49,47.65-32.74,.53-.69,.13-.13,.3-.33,6.81-14.25,20.3-27.68,36.89-28.2,0-.04,.03,.01-.01-.09-16.99-.61-22.31-12.01-20.58-27.29,1.73-15.28,9.05-26.98,23.58-32.1,.04,.07,0-.02,.01,0,13.84-4.78,19.66-16.14,21.08-29.59,1.42,13.46,7.24,24.81,21.08,29.59,.01,0-.03,.08,.01,0,14.53,5.12,21.85,16.82,23.58,32.1,1.73,15.28-3.59,26.69-20.58,27.29-.04,.1,0,.05-.01,.09,16.59,.52,30.08,13.95,36.89,28.2,.17,.2-.23-.37,.3,.33,7.92,17.24,27.97,27.85,47.65,32.74,19.67,4.88,23.53-4.14,13.35-21.02-10.18-16.86-23.48-33.44-43.48-36.83,0-.02,.02-.05,.06-.1,17.96,1.91,19.35-13.97,17.26-27.89-2.09-13.92-8.33-30.38-24.59-29.38-4.11,.25-7.27-.42-9.82-1.77-3.69-1.95-5.63-4.91-6.19-5.79-4.85-7.63-1.4-16.73-.94-17.9,.96-2.04,2.63-6.31,2.17-11.79,0-.03,0-.08-.01-.15,0,0-.51-5.67-4.02-11.03-3.65-5.56-14.88-10.56-18-12.1,0,0-28.02-13.89-34.14-67.27-.11-1.3-.23-2.6-.37-3.92-.06-.58-.12-1.17-.18-1.74-.06,.58-.12,1.16-.18,1.74-.13,1.32-.25,2.62-.37,3.92-6.11,53.38-34.14,67.27-34.14,67.27-3.12,1.54-14.35,6.55-18,12.1-3.52,5.36-4.02,11.03-4.02,11.03,0,.06,0,.11-.01,.15-.46,5.48,1.21,9.75,2.17,11.79,.46,1.16,3.91,10.27-.94,17.9-.56,.88-2.5,3.83-6.19,5.79-2.56,1.35-5.71,2.02-9.82,1.77-16.26-.99-22.5,15.46-24.59,29.38-2.09,13.92-.7,29.8,17.26,27.89,.04,.04,.05,.07,.06,.1-20.01,3.38-33.31,19.96-43.48,36.83-10.18,16.88-6.33,25.9,13.35,21.02Zm153.63-89.52c0,.22,0,.44,0,.66,0-.23,0-.46,0-.69,0,.01,.01,.03,.02,.04Zm-89.44-.04c0,.23,0,.46,0,.69,0-.22,0-.44,0-.66,0-.01,.01-.02,.02-.04Z"/></g></g></svg>