<?xml version="1.0" encoding="UTF-8"?><svg id="Layer_2" xmlns="http://www.w3.org/2000/svg" viewBox="0 0 651.28 96.39"><g id="Layer_1-2"><path d="M112.81,1.64c.87,.44,2.01,1.14,3.13,2.24,1.89,1.85,2.75,3.89,3.14,5.05l-.15,.35-30.02,68.62c-2.81,6.36-6.08,12.68-12.36,14.32v.51h26.9v-.59c-2.49-.98-5.48-2.71-6.69-5.62-.8-1.92-.69-4.02,.34-6.25l5.16-11.89h43.53l4.85,11.46c.97,2.3,1.03,4.47,.17,6.44-1.37,3.17-4.68,4.97-6.85,5.85v.6h35.54v-.48c-4.66-1.08-8.71-5.65-12.05-13.59L133.23,.03c-7.45,0-14.89-.02-22.34-.03V.95c.64,.23,1.28,.46,1.92,.69Zm30.21,56.51h-34.82l17.69-40.79,17.13,40.79Z"/><path d="M260.64,11.81V61.37L203.53,0h-20.94V.76c4.67,2,6.85,5.48,6.85,10.9V80.89c0,5.78-2.18,9.32-6.85,11.08v.73h22.38v-.6c-4.58-1.89-6.64-5.37-6.64-11.21V19.47l70.8,75.97h.3V11.81c0-5.71,2.08-9.15,6.74-11.06V0h-22.27V.76c4.66,1.95,6.74,5.38,6.74,11.05Z"/><path d="M330.41,0c-23.71,0-48.9,17.18-48.9,49.02,0,14.11,5.03,26.2,14.54,34.95,8.7,8,20.31,12.41,32.7,12.41s24.81-4.76,33.69-13.05c9.81-9.16,15-21.7,15-36.27,0-23.39-16.15-47.06-47.02-47.06Zm21.48,77.73c-5.52,7.06-13.41,10.94-22.21,10.94s-17.11-4.04-22.78-11.67c-5.45-7.34-8.46-17.75-8.46-29.33,0-23.72,12.26-39.65,30.51-39.65s31.55,16.8,31.55,40.86c0,11.68-2.98,21.66-8.61,28.86Z"/><path d="M435.54,0c-23.71,0-48.9,17.18-48.9,49.02,0,14.11,5.03,26.2,14.54,34.95,8.7,8,20.31,12.41,32.7,12.41s24.81-4.76,33.69-13.05c9.81-9.16,15-21.7,15-36.27,0-23.39-16.15-47.06-47.02-47.06Zm21.48,77.73c-5.52,7.06-13.41,10.94-22.21,10.94s-17.11-4.04-22.78-11.67c-5.45-7.34-8.46-17.75-8.46-29.33,0-23.72,12.26-39.65,30.51-39.65s31.55,16.8,31.55,40.86c0,11.68-2.98,21.66-8.61,28.86Z"/><path d="M563.98,81.24h0l-24.19-30.84,1.48-.15c15.17-1.54,24.22-10.91,24.22-25.05,0-15.54-11.11-25.2-28.99-25.2h-48.15V.75c4.72,1.91,6.74,5.62,6.74,12.28V79.82c0,8.04-3.18,10.73-6.74,12.26v.61h28.27v-.6c-4.84-2.02-6.74-5.51-6.74-12.27V8.25c1.25,0,2.51,0,3.77,0h16.85c15.56,0,17.88,10.62,17.88,16.95,0,11.12-6.31,17.25-17.78,17.25-5.29,0-10.58,0-15.86,0,12.48,16.75,24.96,33.5,37.44,50.25h23.52v-.7c-2.83-1.02-7.23-5.04-11.73-10.76Z"/><path d="M649.76,0h-74.42l-1.7,19.55c1.17-3.55,4.08-10.69,8.53-10.69h22.94V80.88c0,5.79-2.12,9.27-6.85,11.21v.6h28.48v-.6c-4.8-1.96-6.95-5.44-6.95-11.21V8.86h22.73c4.54,0,7.73,7.88,8.77,10.84l-1.53-19.7Z"/><path d="M103.12,.93V0c-9.12,0-18.24,.01-27.35,.02V.75c3.21,1.25,5.55,3.21,6.46,5.45,.73,1.79,.59,3.71-.4,5.71l-26.79,55.11L29.1,12.51c-1.01-2.16-1.14-4.18-.39-6.02,1.17-2.88,4.22-4.68,6.77-5.72V.02H0V.75c4.24,1.58,7.47,4.38,11.9,13.46L51.28,94.46h.35L91.12,14.81c3.46-5.71,6.32-9.84,7.63-11.35,.54-.62,1.27-1.45,2.46-2,.79-.36,1.5-.48,1.92-.53Z"/></g></svg>