<?xml version="1.0" encoding="UTF-8"?><svg id="Layer_2" xmlns="http://www.w3.org/2000/svg" viewBox="0 0 381.71 318.32"><g id="Layer_1-2"><path d="M0,292.51c14.33-.75,24.99-11.41,25.74-25.74h.07c.74,14.33,11.41,24.99,25.74,25.74,0,.02,0,.05,0,.07-14.33,.74-24.99,11.41-25.74,25.74h-.07c-.75-14.33-11.4-24.99-25.74-25.74,0-.02,0-.05,0-.07Z"/><path d="M171.79,145.53c11.51-2.86,23.23-9.06,27.87-19.15,.31-.41,.08-.07,.17-.19,3.98-8.34,11.87-16.19,21.58-16.49,0-.02,.02,0,0-.05-9.94-.35-13.05-7.02-12.04-15.96,1.01-8.94,5.29-15.78,13.79-18.78,.03,.04,0-.01,0,0,8.09-2.8,11.5-9.44,12.33-17.31,.83,7.87,4.23,14.51,12.33,17.31,0,0-.02,.04,0,0,8.5,2.99,12.78,9.84,13.79,18.78,1.01,8.94-2.1,15.61-12.04,15.96-.03,.06,0,.03,0,.05,9.7,.31,17.59,8.16,21.58,16.49,.1,.12-.14-.21,.17,.19,4.63,10.08,16.36,16.29,27.87,19.15,11.51,2.86,13.76-2.42,7.8-12.29-5.95-9.86-13.73-19.56-25.43-21.54,0-.01,.01-.03,.04-.06,10.5,1.12,11.32-8.17,10.09-16.31-1.22-8.14-4.87-17.77-14.38-17.18-2.4,.15-4.25-.25-5.75-1.04-2.16-1.14-3.29-2.87-3.62-3.38-2.84-4.46-.82-9.79-.55-10.47,.56-1.19,1.54-3.69,1.27-6.9v-.08s-.3-3.32-2.36-6.45c-2.13-3.25-8.7-6.18-10.53-7.08,0,0-16.39-8.12-19.96-39.34-.07-.76-.14-1.52-.21-2.29-.03-.34-.07-.68-.1-1.02-.04,.34-.07,.68-.11,1.02-.08,.77-.15,1.53-.21,2.29-3.58,31.22-19.96,39.34-19.96,39.34-1.82,.9-8.39,3.83-10.53,7.08-2.06,3.13-2.35,6.45-2.35,6.45v.08c-.28,3.2,.7,5.7,1.26,6.9,.27,.68,2.29,6.01-.55,10.47-.33,.51-1.46,2.24-3.62,3.38-1.5,.79-3.34,1.18-5.75,1.04-9.51-.58-13.16,9.04-14.38,17.18-1.22,8.14-.41,17.43,10.09,16.31,.02,.02,.03,.04,.04,.06-11.7,1.98-19.48,11.67-25.43,21.54-5.95,9.87-3.7,15.15,7.8,12.29Zm89.85-52.35c0,.13,0,.26,0,.38,0-.14,0-.27,0-.41v.02Zm-52.3-.02c0,.13,0,.27,0,.41,0-.13,0-.26,0-.38v-.02Z"/><path d="M25.63,203.85c.83,7.87,4.23,14.51,12.33,17.31,0,0-.02,.04,0,0,8.5,2.99,12.78,9.84,13.79,18.78,1.01,8.94-2.1,15.61-12.04,15.96-.03,.06,0,.03,0,.05,9.7,.31,17.59,8.16,21.58,16.49,.1,.12-.14-.21,.17,.19,4.63,10.08,16.36,16.29,27.86,19.15,11.51,2.86,13.76-2.42,7.8-12.29-5.95-9.86-13.73-19.56-25.43-21.54,0-.01,.01-.03,.04-.06,10.5,1.12,11.32-8.17,10.09-16.31-1.22-8.14-4.87-17.77-14.38-17.18-2.4,.15-4.25-.24-5.75-1.04-2.16-1.14-3.29-2.87-3.62-3.38-2.84-4.46-.82-9.79-.55-10.47,.56-1.19,1.54-3.69,1.27-6.9v-.08s-.3-3.32-2.36-6.45c-2.13-3.25-8.7-6.18-10.53-7.08,0,0-16.39-8.12-19.97-39.34-.07-.76-.14-1.52-.21-2.29-.03-.34-.07-.68-.1-1.02-.04,.34-.07,.68-.11,1.02-.08,.77-.15,1.53-.21,2.29l.32,54.19Zm26.16,35.57c0,.13,0,.26,0,.38,0-.14,0-.27,0-.41v.02Z"/><path d="M25.63,88.8c.83-7.87,4.23-14.51,12.33-17.31,0,0-.02-.04,0,0,8.5-2.99,12.78-9.84,13.79-18.78,1.01-8.94-2.1-15.61-12.04-15.96-.03-.06,0-.03,0-.05,9.7-.31,17.59-8.16,21.58-16.49,.1-.12-.14,.21,.17-.19C66.09,9.93,77.82,3.72,89.32,.87c11.51-2.86,13.76,2.42,7.8,12.29-5.95,9.86-13.73,19.56-25.43,21.54,0,.01,.01,.03,.04,.06,10.5-1.12,11.32,8.17,10.09,16.31-1.22,8.14-4.87,17.77-14.38,17.18-2.4-.15-4.25,.24-5.75,1.04-2.16,1.14-3.29,2.87-3.62,3.38-2.84,4.46-.82,9.79-.55,10.47,.56,1.19,1.54,3.69,1.27,6.9v.08s-.3,3.32-2.36,6.45c-2.13,3.25-8.7,6.18-10.53,7.08,0,0-16.39,8.12-19.97,39.34-.07,.76-.14,1.52-.21,2.29-.03,.34-.07,.68-.1,1.02-.04-.34-.07-.68-.11-1.02-.08-.77-.15-1.53-.21-2.29l.32-54.19Zm26.16-35.57c0-.13,0-.26,0-.38,0,.14,0,.27,0,.41v-.02Z"/><path d="M293.01,.71c7.87,.83,14.51,4.23,17.31,12.33,0,0,.04-.02,0,0,2.99,8.5,9.84,12.78,18.78,13.79,8.94,1.01,15.61-2.1,15.96-12.04,.06-.03,.03,0,.05,0,.31,9.7,8.16,17.59,16.49,21.58,.12,.1-.21-.14,.19,.17,10.08,4.63,16.29,16.36,19.15,27.86,2.86,11.51-2.42,13.76-12.29,7.8-9.86-5.95-19.56-13.73-21.54-25.43-.01,0-.03,.01-.06,.04,1.12,10.5-8.17,11.32-16.31,10.09-8.14-1.22-17.77-4.87-17.18-14.38,.15-2.4-.24-4.25-1.04-5.75-1.14-2.16-2.87-3.29-3.38-3.62-4.46-2.84-9.79-.82-10.47-.55-1.19,.56-3.69,1.54-6.9,1.27h-.08s-3.32-.3-6.45-2.36c-3.25-2.13-6.18-8.7-7.08-10.53,0,0-8.12-16.39-39.34-19.97-.76-.07-1.52-.14-2.29-.21-.34-.03-.68-.07-1.02-.1,.34-.04,.68-.07,1.02-.11,.77-.08,1.53-.15,2.29-.21l54.19,.32Zm35.57,26.16c.13,0,.26,0,.38,0-.14,0-.27,0-.41,0h.02Z"/><path d="M177.96,.71c-7.87,.83-14.51,4.23-17.31,12.33,0,0-.04-.02,0,0-2.99,8.5-9.84,12.78-18.78,13.79-8.94,1.01-15.61-2.1-15.96-12.04-.06-.03-.03,0-.05,0-.31,9.7-8.16,17.59-16.49,21.58-.12,.1,.21-.14-.19,.17-10.08,4.63-16.29,16.36-19.15,27.86-2.86,11.51,2.42,13.76,12.29,7.8,9.86-5.95,19.56-13.73,21.54-25.43,.01,0,.03,.01,.06,.04-1.12,10.5,8.17,11.32,16.31,10.09,8.14-1.22,17.77-4.87,17.18-14.38-.15-2.4,.24-4.25,1.04-5.75,1.14-2.16,2.87-3.29,3.38-3.62,4.46-2.84,9.79-.82,10.47-.55,1.19,.56,3.69,1.54,6.9,1.27h.08s3.32-.3,6.45-2.36c3.25-2.13,6.18-8.7,7.08-10.53,0,0,8.12-16.39,39.34-19.97,.76-.07,1.52-.14,2.29-.21,.34-.03,.68-.07,1.02-.1-.34-.04-.68-.07-1.02-.11-.77-.08-1.53-.15-2.29-.21l-54.19,.32Zm-35.57,26.16c-.13,0-.26,0-.38,0,.14,0,.27,0,.41,0h-.02Z"/><path d="M171.09,210.01c-2.86-11.51-9.06-23.23-19.15-27.87-.41-.31-.07-.08-.19-.17-8.34-3.98-16.19-11.87-16.49-21.58-.02,0,0-.02-.05,0-.35,9.94-7.02,13.05-15.96,12.04-8.94-1.01-15.78-5.29-18.78-13.79,.04-.03-.01,0,0,0-2.8-8.09-9.44-11.5-17.31-12.33,7.87-.83,14.51-4.23,17.31-12.33,0,0,.04,.02,0,0,2.99-8.5,9.84-12.78,18.78-13.79,8.94-1.01,15.61,2.1,15.96,12.04,.06,.03,.03,0,.05,0,.31-9.7,8.16-17.59,16.49-21.58,.12-.1-.21,.14,.19-.17,10.08-4.63,16.29-16.36,19.15-27.87,2.86-11.51-2.42-13.76-12.29-7.8-9.86,5.95-19.56,13.73-21.54,25.43-.01,0-.03-.01-.06-.04,1.12-10.5-8.17-11.32-16.31-10.09-8.14,1.22-17.77,4.87-17.18,14.38,.15,2.4-.25,4.25-1.04,5.75-1.14,2.16-2.87,3.29-3.38,3.62-4.46,2.84-9.79,.82-10.47,.55-1.19-.56-3.69-1.54-6.9-1.27h-.08s-3.32,.3-6.45,2.36c-3.25,2.13-6.18,8.7-7.08,10.53,0,0-8.12,16.39-39.34,19.96-.76,.07-1.52,.14-2.29,.21-.34,.03-.68,.07-1.02,.1,.34,.04,.68,.07,1.02,.11,.77,.08,1.53,.15,2.29,.21,31.22,3.58,39.34,19.96,39.34,19.96,.9,1.82,3.83,8.39,7.08,10.53,3.13,2.06,6.45,2.35,6.45,2.35h.08c3.2,.28,5.7-.7,6.9-1.26,.68-.27,6.01-2.29,10.47,.55,.51,.33,2.24,1.46,3.38,3.62,.79,1.5,1.18,3.34,1.04,5.75-.58,9.51,9.04,13.16,17.18,14.38,8.14,1.22,17.43,.41,16.31-10.09,.02-.02,.04-.03,.06-.04,1.98,11.7,11.67,19.48,21.54,25.43,9.87,5.95,15.15,3.7,12.29-7.8Zm-52.35-89.85c.13,0,.26,0,.38,0-.14,0-.27,0-.41,0h.02Zm-.02,52.3c.13,0,.27,0,.41,0-.13,0-.26,0-.38,0h-.02Z"/><path d="M25.7,25.77h.07v-.05l-.07,.05Z"/><path d="M51.51,.04v-.04H25.31l.38,25.77,.08-.05C26.54,11.42,37.19,.78,51.51,.04Z"/></g></svg>