<?xml version="1.0" encoding="UTF-8"?><svg id="Layer_2" xmlns="http://www.w3.org/2000/svg" viewBox="0 0 839.03 503.59"><g id="Layer_1-2"><g><path d="M540.98,144.07c3.6,.82,7.22,1.66,10.75,2.53l.39,.1-7.69,31.17c-.54,2.2-1.62,3.52-3.37,4.11,3.36,.82,6.75,1.67,10.1,2.56-1.29-1.36-1.62-3.04-1.05-5.22l8.09-31.07,.39,.11c3.49,.9,7.06,1.87,10.6,2.87,1.52,.42,2.29,2.19,2.67,3.82,.4-1.98,.79-3.95,1.19-5.93-11.27-3.25-22.8-6.18-34.27-8.69-.59,1.84-1.19,3.67-1.77,5.52,1.09-1.21,2.48-2.21,3.97-1.88Z"/><path d="M504.64,174.54c-1.39-1.26-1.79-2.95-1.37-5.56l5.12-31.49,2.2,.36c2.66,.45,5.32,.9,7.98,1.39,3.01,.55,5.16,1.74,6.38,3.53,1.35,1.99,1.25,4.28,.93,5.86-.83,4.1-3.37,6.33-7.28,6.45-.88,.03-1.82-.04-2.83-.23-2.14-.39-4.31-.77-6.46-1.13,4.33,7.88,8.48,15.93,12.36,23.94,3,.61,6.05,1.25,9.05,1.91-1.05-1.04-2.27-2.87-3.47-5.23-2.63-5.16-5.38-10.38-8.2-15.48l-.37-.66,1.46,.13c6.93,.64,11.62-2.35,12.89-8.23,.6-2.76,.16-5.35-1.25-7.49-1.87-2.82-5.28-4.76-9.87-5.62-1.08-.21-2.16-.4-3.25-.6-2.53-.47-5.08-.9-7.63-1.32-.73-.12-1.47-.24-2.2-.36-2.91-.48-5.83-.92-8.73-1.35,1.57,1.23,2.1,3.01,1.71,5.63l-4.35,29.07c-.46,3.02-1.69,4.26-3.02,4.86,3.39,.5,6.81,1.03,10.2,1.6Z"/><path d="M491.11,137.81c-3.52-4.54-8.93-7.31-15.62-7.98-.86-.09-1.73-.13-2.59-.13-5.64,.01-11.18,1.96-15.19,5.41-4.14,3.57-6.48,8.49-6.76,14.24-.34,6.09,1.61,11.49,5.61,15.63,3.61,3.73,8.59,6.07,14.01,6.61,.72,.08,1.44,.11,2.15,.11h.1c4.77,0,9.5-1.44,13.29-4.09,4.91-3.45,7.98-8.57,8.86-14.79,.8-5.36-.6-10.84-3.86-15.03Zm-3.32,14.87c-.27,2.14-.77,4.12-1.46,5.93-.99,2.59-2.39,4.82-4.18,6.57-.97,.95-2.03,1.74-3.17,2.35-1.9,1.02-4.01,1.57-6.2,1.59h-.14c-.46,0-.91-.03-1.38-.08-4.27-.42-7.8-2.59-10.18-6.27-.86-1.33-1.55-2.84-2.05-4.48-.34-1.09-.59-2.24-.76-3.44-.25-1.79-.32-3.68-.18-5.62,.1-1.45,.3-2.85,.61-4.17,.16-.66,.34-1.3,.54-1.92,.83-2.48,2.05-4.63,3.63-6.34,.39-.43,.81-.83,1.25-1.2,.93-.78,1.93-1.42,2.99-1.92,.36-.17,.72-.31,1.09-.45,.74-.27,1.51-.47,2.3-.6,.4-.07,.8-.12,1.2-.15,.41-.03,.82-.05,1.24-.05h.01c.51,0,1.03,.02,1.57,.08,.88,.09,1.73,.25,2.54,.47,.28,.08,.55,.16,.82,.25,.53,.18,1.05,.39,1.55,.63,1.05,.5,2.04,1.11,2.93,1.86,.72,.61,1.39,1.29,2,2.06,1.81,2.28,2.96,5.13,3.42,8.32,.11,.76,.19,1.53,.22,2.32,.05,1.38-.02,2.81-.21,4.27Z"/><path d="M425.84,127.18h-.28c-.74,0-1.48,.03-2.21,.11-.24,.02-.49,.04-.73,.09-5.38,.63-10.46,3.02-13.99,6.68-3.82,3.93-5.7,9.05-5.45,14.8,.21,6.09,2.63,11.3,6.99,15.06,3.94,3.39,9.1,5.27,14.55,5.32h.15c.43,0,.88-.01,1.32-.04,.25-.01,.49-.03,.74-.07,4.75-.41,9.35-2.27,12.87-5.26,4.58-3.87,7.16-9.24,7.48-15.53,.32-5.41-1.59-10.75-5.21-14.62-3.91-4.2-9.52-6.45-16.23-6.52Zm11.32,32.47c-.46,.75-.95,1.47-1.51,2.13-.88,1.03-1.86,1.9-2.94,2.62-.36,.24-.73,.46-1.1,.66-1.51,.8-3.16,1.31-4.9,1.49-.23,.02-.46,.04-.7,.05-.25,.01-.5,.02-.75,.02h-.11c-2.15-.02-4.14-.49-5.94-1.38-.9-.45-1.75-1-2.54-1.66-.4-.33-.78-.68-1.15-1.06-.37-.38-.72-.79-1.06-1.22-1.3-1.66-2.33-3.67-3.04-5.91-.35-1.13-.63-2.31-.83-3.53-.19-1.19-.3-2.43-.33-3.69,0-.03,0-.07,0-.1h0s0-.02,0-.03c-.05-2.05,.14-4,.54-5.81,.22-1,.51-1.94,.86-2.84,.24-.63,.51-1.23,.81-1.81,.26-.5,.54-.97,.84-1.43,.52-.79,1.08-1.53,1.73-2.18h0c.62-.63,1.29-1.18,2.01-1.67,.31-.21,.63-.41,.95-.59,1.17-.66,2.43-1.14,3.78-1.44,.37-.08,.75-.15,1.13-.2,.21-.02,.41-.04,.62-.06,.48-.04,.96-.07,1.45-.07h.11c2.02,.02,3.91,.4,5.64,1.13,.43,.18,.85,.39,1.26,.61,1.23,.68,2.36,1.55,3.36,2.61,2.07,2.17,3.51,5.01,4.24,8.27,.29,1.31,.47,2.68,.53,4.11,.03,.71,.03,1.44,0,2.18-.15,4.18-1.18,7.86-2.97,10.82Z"/><path d="M395.19,133.34l.74,22.8-.73-.7c-8.97-8.69-18.46-17.19-28.19-25.29-2.94,.25-5.88,.51-8.78,.8,1.83,.8,2.83,2.27,3.03,4.45l2.88,30.33c.22,2.25-.4,3.9-1.87,4.99,2.54-.25,5.12-.49,7.68-.7-1.59-.85-2.42-2.33-2.62-4.59l-2.44-27.91,.75,.63c11.79,9.84,23.16,20.27,33.81,30.99l-.88-35.91c-.07-2.28,.71-3.85,2.39-4.85-2.82,.07-5.64,.14-8.46,.25,1.75,.9,2.61,2.42,2.69,4.7Z"/><path d="M353.36,166.03c-6.38-10.76-13.18-21.54-20.19-32.01-3.07,.45-6.15,.92-9.21,1.41,.61,.19,1.15,.42,1.64,.74,.83,.53,1.5,1.26,1.98,2.11l.08,.14-.1,.33c-3.14,10.62-6.07,21.43-8.69,32.12-.63,2.54-1.41,5.11-3.23,6.66,3.03-.59,6.09-1.14,9.11-1.67-1.11-.4-1.95-1-2.45-1.76-.58-.87-.71-1.9-.38-3.07,.46-1.85,.92-3.71,1.4-5.56l.07-.25,.26-.05c6.49-1.12,13.11-2.14,19.67-3.02l.26-.03,.14,.23c.96,1.57,1.9,3.14,2.85,4.71,.62,1.05,.78,2.1,.48,3.13-.32,1.08-1.09,1.91-1.89,2.53,4.31-.58,8.67-1.1,13.01-1.57-1.69-.77-3.31-2.49-4.82-5.12Zm-11.17-7.45l-.54,.08h-.08c-.33,.06-.67,.11-1,.16-4.96,.68-9.95,1.44-14.85,2.27l-.62,.11,.08-.31,.08-.31c1.4-5.28,2.9-10.6,4.44-15.88,.31-1.05,.6-2.12,.91-3.17l.25-.84,.49,.74c1.3,1.99,2.58,4,3.86,6.01,.97,1.53,1.93,3.05,2.89,4.58,1.26,2.01,2.53,4.03,3.76,6.03l.33,.53h0Z"/><path d="M316.09,136.79c-3.53,.63-7.08,1.3-10.58,2,1.21,.35,2.15,.94,2.69,1.7,.57,.82,.69,1.78,.35,2.88-2.66,8.77-5.16,17.71-7.45,26.56l-.21,.78-.5-.63c-5.65-7.02-11.54-14.03-17.48-20.81-.79-.92-1.1-1.9-.91-2.9,.21-1.14,1.01-2.1,1.87-2.83-4.82,1.16-9.68,2.4-14.47,3.7,1.79,.36,3.57,1.4,6.21,4.26,8.96,9.67,17.7,19.71,25.97,29.85,3.21-12.6,6.85-25.32,10.85-37.81,1.2-2.86,2.25-4.94,2.77-5.73,.17-.26,.44-.66,.89-1.02Z"/><path d="M768.25,250.12l-.17-.09,.15-.12c1.75-1.34,2.75-3.04,2.75-4.66,0-3.37-2.52-5.55-6.41-5.55s-6.38,2.2-6.38,5.35c0,1.75,.94,3.33,2.7,4.58l.17,.12-.18,.09c-2.65,1.34-3.94,3.07-3.94,5.29,0,3.4,3.03,5.69,7.53,5.69s7.38-2.22,7.38-5.54c0-2.87-1.73-4.18-3.6-5.17Zm-7.21-5.05c0-1.78,1.36-2.93,3.46-2.93,2.27,0,3.74,1.27,3.74,3.24,0,1.33-.74,2.57-2.21,3.68l-.05,.04-.06-.02c-3.09-.99-4.89-1.97-4.89-4.01Zm3.5,13.35c-2.86,0-4.78-1.42-4.78-3.53,0-1.59,.97-2.83,3.13-4.01l.05-.03,.59,.2c3.12,1.03,5.38,1.77,5.38,4.15,0,1.99-1.67,3.22-4.37,3.22Z"/><path d="M747.95,240.09h-2.16l-.14,.03c-1.34,.72-2.84,1.14-5.01,1.43l-.22,.03v2.14h4.46v14.09h-5.74v2.64h13.97v-2.64h-5.17v-17.72Z"/><path d="M95.55,239.71c-4.69,0-7.38,3.82-7.38,10.49s2.76,10.62,7.38,10.62,7.38-3.97,7.38-10.62-2.69-10.49-7.38-10.49Zm0,18.54c-2.86,0-4.49-2.93-4.49-8.05,0-.09,0-.18,0-.27,.05-4.93,1.64-7.64,4.48-7.64s4.43,2.72,4.48,7.65c0,.08,.01,.17,.01,.26,0,5.11-1.64,8.05-4.49,8.05Z"/><path d="M74.58,257.72c5-4.58,8.47-8.18,8.47-11.91s-2.69-6.22-6.85-6.22c-3.28,0-5.38,1.68-6.84,3.14l-.26,.25,2.03,1.99,.25-.26c1.46-1.5,2.98-2.26,4.51-2.26,2.53,0,3.93,1.24,3.93,3.5,0,3.21-3.9,6.84-10.28,12.47l-.13,.11v2.05h14.72v-2.94h-6.88c-.82,0-1.71,.03-2.69,.09Z"/><path d="M689.92,197.4c-.32-.18-.59-.34-.77-.44l-.65-.37c-3.61-2.09-6.97-3.94-10.25-5.65-3.7-1.93-7.53-3.82-11.4-5.62l-.52-.25c-.18-.09-.36-.17-.55-.25l-.51-.23c-3.94-1.82-7.77-3.51-11.38-5.01-4.13-1.72-8.27-3.34-12.29-4.8-2.3-.84-4.52-1.63-6.61-2.36-1.64-.57-3.3-1.13-5.1-1.72l-.98-.32c-1.51-.48-3.27-1.02-5.17-1.6-1.19-.36-2.46-.73-3.76-1.1l-.17-.05c-.67-.19-1.33-.38-2.01-.57l-1.34-.36,1.45-14.82-.34-.16c-11.53-5.43-23.3-10.23-35.01-14.28-3.86-1.34-7.8-2.62-11.68-3.8-.34-.1-.68-.2-1.02-.3l-.78-.23c-3.77-1.13-7.17-2.1-10.4-2.97-12.25-3.3-24.67-6-36.94-8.02l-.82-.13c-1.13-.19-2.27-.37-3.41-.55-1.32-.21-2.64-.41-3.98-.6-1.28-.19-2.58-.37-3.88-.55l-1.24-.17c-3.2-.43-6.52-.83-9.87-1.21-1.13-.13-2.28-.25-3.45-.38-1.72-.18-3.47-.36-5.26-.53l-.58-.06c-2.79-.27-5.74-.53-8.76-.79l-.54-.05c-.99-.08-1.99-.16-2.99-.24l-1.64-.11,.16-1.14c.11-.46,.24-.9,.37-1.34,.14-.44,.28-.87,.44-1.29,.32-.84,.69-1.66,1.1-2.43,.56-1.04,1.21-2.04,1.94-2.98,.23-.3,.47-.58,.7-.86,.45-.52,.94-1.04,1.45-1.53,.87-.84,1.83-1.64,2.85-2.37,.36-.26,.71-.49,1.05-.71,.21-.14,.42-.27,.62-.39l.36-.22c.5-.3,.95-.55,1.31-.75,2.04-1.14,4.48-2.16,7.24-3.02,2.05-.64,4.34-1.21,6.79-1.69,2.3-.45,4.25-.75,5.86-.95,13.31-1.7,23.38-1.99,23.38-1.99,0,0,14.21-.41,36.71,1.83,2.16,.21,4.2,.46,4.2,.46,2.16,.26,4.35,.57,6.52,.91,1.64,.26,3.1,.51,4.47,.76,2.65,.49,5.37,1.05,8.07,1.67,1.45,.33,2.91,.68,4.35,1.04,2.07,.52,4.31,1.12,6.85,1.85,2.32,.67,4.25,1.25,6.06,1.82l2.86,.91-2.23-2.01c-1.16-1.04-2.34-2.09-3.51-3.1-2.35-2.03-4.77-4.03-7.19-5.95-2.42-1.91-4.91-3.8-7.4-5.6-6.22-4.5-12.74-8.68-19.37-12.43-2.04-1.16-4.23-2.34-6.69-3.61-2.43-1.26-4.94-2.49-7.44-3.67-1.28-.6-2.58-1.19-3.84-1.75-2.49-1.1-4.72-2.05-6.82-2.89-5.51-2.21-13.05-5.23-22.31-7.85-1.35-.38-2.72-.75-4.07-1.09-1.43-.36-2.86-.71-4.27-1.02-.73-.16-1.46-.32-2.21-.48-1.52-.32-3.06-.61-4.56-.88-2.39-.42-4.81-.78-7.19-1.07-1.66-.21-3.35-.38-5.01-.52-1.67-.14-3.37-.26-5.04-.34h-.23c-2.62-.09-6.32-.15-10.76-.08-3.06,.05-9.52,.22-18.37,1.07-20.18,1.94-21.98,4.47-22.29,5.87-.11,.49-.05,.92,0,1.17v22.29c-1.23,.29-3.02,.92-4.69,2.35-.46,.39-.84,.79-1.17,1.17,.28,9.9,.56,19.8,.84,29.7l-.09,.82-1.6-.04c-1.79-.05-3.53-.09-5.24-.12-1.87-.04-3.15-.06-4.87-.08-.73,0-2.12-.02-3.94-.02-1.82,0-3.21,.01-3.94,.02-1.72,.02-3,.04-4.87,.08-1.7,.03-3.45,.08-5.24,.12l-1.6,.04-.09-.82c.28-9.9,.56-19.8,.84-29.7-.33-.39-.72-.78-1.17-1.17-1.67-1.43-3.47-2.05-4.69-2.35v-22.29c.05-.26,.11-.68,0-1.17-.31-1.39-2.11-3.92-22.29-5.87-8.85-.85-15.31-1.02-18.37-1.07-4.44-.08-8.14-.01-10.76,.07h-.23c-1.67,.09-3.37,.2-5.04,.35-1.67,.14-3.35,.32-5.01,.52-2.38,.29-4.79,.65-7.19,1.07-1.5,.26-3.04,.56-4.56,.88-.75,.16-1.48,.31-2.21,.48-1.41,.32-2.84,.66-4.27,1.02-1.34,.34-2.71,.71-4.07,1.09-9.26,2.62-16.8,5.64-22.31,7.85-2.09,.84-4.32,1.78-6.82,2.89-1.27,.56-2.56,1.15-3.84,1.75-2.5,1.17-5.01,2.4-7.44,3.67-2.45,1.27-4.64,2.45-6.69,3.61-6.63,3.75-13.15,7.94-19.37,12.43-2.49,1.8-4.98,3.68-7.4,5.6-2.42,1.91-4.84,3.92-7.19,5.95-1.18,1.02-2.36,2.06-3.51,3.1l-2.23,2.01,2.86-.91c1.81-.58,3.73-1.16,6.06-1.82,2.54-.73,4.78-1.33,6.85-1.85,1.44-.36,2.9-.71,4.35-1.04,2.71-.62,5.42-1.18,8.07-1.67,1.37-.25,2.83-.5,4.47-.76,2.17-.34,4.36-.65,6.52-.91,0,0,2.04-.25,4.2-.46,22.5-2.24,36.71-1.83,36.71-1.83,0,0,10.07,.29,23.38,1.99,1.61,.21,3.56,.5,5.86,.95,2.46,.48,4.74,1.05,6.79,1.69,2.77,.86,5.2,1.88,7.24,3.02,.36,.2,.81,.45,1.31,.75l.36,.22c.2,.12,.41,.25,.62,.39,.34,.22,.68,.45,1.05,.71,1.03,.73,1.99,1.53,2.85,2.37,.51,.5,1,1.01,1.45,1.53,.24,.28,.47,.56,.7,.86,.73,.94,1.38,1.94,1.94,2.98,.41,.77,.78,1.59,1.1,2.43,.16,.42,.31,.86,.44,1.29,.14,.43,.26,.88,.37,1.34l.16,1.14-1.64,.11c-1,.08-2,.16-2.99,.24l-.54,.05c-3.02,.25-5.97,.52-8.76,.79l-.58,.06c-1.79,.17-3.54,.35-5.26,.53-1.16,.12-2.31,.25-3.45,.38-3.35,.38-6.68,.78-9.87,1.21l-1.24,.17c-1.31,.18-2.6,.36-3.88,.55-1.34,.19-2.66,.39-3.98,.6-1.14,.18-2.28,.36-3.41,.55l-.82,.13c-12.26,2.02-24.69,4.71-36.94,8.02-3.23,.87-6.64,1.84-10.4,2.97l-.78,.23c-.34,.1-.68,.2-1.02,.3-3.89,1.18-7.82,2.46-11.68,3.8-11.71,4.05-23.49,8.85-35.01,14.28l-.34,.16,1.45,14.82-1.34,.36c-.67,.19-1.34,.38-2.01,.57l-.17,.05c-1.29,.37-2.56,.74-3.76,1.1-1.9,.58-3.66,1.13-5.17,1.6l-.98,.32c-1.8,.59-3.47,1.15-5.1,1.72-2.09,.72-4.31,1.52-6.61,2.36-4.02,1.47-8.16,3.08-12.29,4.8-3.6,1.5-7.43,3.18-11.38,5.01l-.51,.23c-.18,.08-.37,.16-.55,.25l-.52,.25c-3.87,1.8-7.7,3.69-11.4,5.62-3.28,1.72-6.63,3.57-10.25,5.65l-.65,.37c-.18,.1-.45,.25-.77,.44-2.65,1.52-9.71,5.56-15.28,9.1-3.61,2.29-8.59,5.64-14.52,10.24,3.64-.87,8.89-2.01,15.26-3.01,7.33-1.14,12.67-1.6,23.38-2.29,7.88-.51,15.39-.73,22.47-.73,1.51,.05,3.02,.1,4.54,.17,2.22,.11,4.34,.22,6.41,.34,2.3,.13,4.39,.27,6.39,.42l4.25,.31-4.33,3.42c-.85,.67-1.69,1.34-2.53,2-2.51,2-4.93,3.95-7.19,5.82-1.13,.93-2.24,1.85-3.33,2.77-1.4,1.16-2.93,2.46-4.67,3.96-.77,.67-1.54,1.33-2.3,1.99l-2.26,1.97c-2.14,1.87-4.33,3.82-6.69,5.97-.77,.7-1.54,1.41-2.33,2.14-2.69,2.47-5.09,4.72-7.36,6.86-1.5,1.42-2.92,2.78-4.29,4.1-2,1.94-3.91,3.81-5.83,5.75-2.26,2.27-4,4.04-4.3,4.34l-.04,.04c-1.83,1.86-5.94,6.16-14.97,15.78,10.04-5.53,18.41-9.25,24.36-11.67,2.08-.84,3.86-1.53,7.41-2.89,7.39-2.84,14.86-5.58,22.21-8.13,4.9-1.7,9.85-3.36,14.73-4.93,1.77-.58,3.55-1.13,5.31-1.69,2.19-.68,4.35-1.34,6.48-1.98,1.71-.52,3.41-1.02,5.06-1.51,3.12-.9,5.97-1.7,8.74-2.47,2.9-.8,5.63-1.53,8.32-2.24l3.18-.83c1.76-.45,3.5-.89,5.21-1.32,3.1-.77,6.07-1.49,8.79-2.15,1.72-.42,3.34-.81,4.88-1.17,2.32-.55,4.46-1.05,6.5-1.52,1.53-.35,3-.68,4.44-1l1.43-.32c2.93-.65,5.9-1.28,8.82-1.88,5.86-1.2,11.74-2.3,17.46-3.26,2.92-.49,5.8-.95,8.58-1.37,5.43-.82,11.05-1.59,16.7-2.27l8.21-.97c1.05-.12,2.05-.23,3.03-.33,.72-.08,1.43-.15,2.14-.22,1.69-.17,3.38-.33,5.22-.49,.92-.08,1.8-.17,2.54-.25l4.06-.44c.76-.09,1.47-.17,2.14-.26,.66-.08,1.27-.17,1.84-.27,.58-.09,1.09-.19,1.55-.29,.39-.09,.77-.19,1.14-.3,.29-.09,.56-.19,.82-.29,.3-.12,.54-.24,.75-.36,.38-.22,.71-.47,.99-.76,.28-.29,.51-.6,.72-.96,0,0,.34-.57,.54-1.21,.24-.75-.32-13.72-1.44-31.46,3.59-.31,7.26-.59,10.98-.84,3.78-.25,7.49-.45,11.14-.62,0,.48,0,.96-.01,1.44,.02,3.23-.14,6.55-.47,9.84l-.04,.43c-.03,.31-.06,.63-.09,.94-.11,.9-.23,1.98-.4,3.21-.45,3.21-1.04,6.25-1.81,9.3-.16,.62-.32,1.24-.5,1.89-.47,1.69-1,3.41-1.59,5.1-.64,1.86-1.36,3.75-2.13,5.62-.65,1.57-2.25,5.3-4.77,9.95,0,0-1.76,3.23-3.76,6.39-.04,.06-.13,.21-.27,.42-16.09,25.47-47.92,44.85-47.92,44.85-50.25,30.55-111.53,31.57-120.94,31.63-22.35,.15-40.71-2.58-53-5,2.82,8.15,6.99,17.96,13.21,28.42,7.14,12.01,14.88,21.3,21.44,28.12,0,0,9.46,11.12,24.21,24.63,5.28,4.84,10.75,9.53,16.24,13.94,.04,.03,.34,.27,.89,.69l2.02,1.51c.98,.72,2.02,1.46,3.09,2.21l.97,.67c.4,.27,.8,.55,1.22,.84,1.61,1.1,3.32,2.23,5.08,3.37,.57,.37,1.15,.74,1.75,1.12,.86,.55,1.76,1.11,2.69,1.68,1.73,1.07,3.54,2.17,5.38,3.25,.5,.29,1,.59,1.51,.88l1.38,.8c.86,.49,1.74,.99,2.64,1.5,1.77,.99,3.58,1.97,5.36,2.92,1.5,.8,3.1,1.62,4.75,2.46,.55,.28,1.1,.55,1.65,.83,1.11,.55,2.23,1.1,3.37,1.66,2.43,1.17,4.97,2.35,7.55,3.5,.64,.29,1.29,.57,1.95,.86,1.95,.85,3.91,1.68,5.8,2.45,3.04,1.24,6.31,2.5,9.99,3.83,3.33,1.21,6.11,2.16,8.72,2.99,.54,.17,1.08,.34,1.62,.51,4.27,1.33,8.58,2.55,12.79,3.6,4.46,1.12,8.96,2.1,13.38,2.91,6.21,1.13,11.1,1.13,14.8,.05,.42-.12,1.79-.58,2.78-1.14,.43-.25,.83-.52,.83-.52,0,0,.5-.35,.96-.76,.62-.55,6.41-12.32,13.91-28.66l14.08-30.02c3.39,.05,6.19-.28,8.21-.61,4.57-.76,8.25-1.41,11.5-4.22,1.76-1.52,2.83-3.19,3.46-4.37-.02,.03,0-.05,.02-.11l.04-.12c1.73-8.01,3.41-16.32,5-24.73,.52-2.76,1.04-5.55,1.55-8.36l.3-1.67c2.67-14.83,5.11-30.06,7.47-46.56l.34-2.23c1.59-8.6,2.99-17.41,4.16-26.2,.39-2.94,.72-5.58,1.02-8.07,.42-3.56,1.36-11.86,2.16-22.71,.41-5.57,1.34-19.16,1.54-36.97,.1-8.7,0-16.03-.13-21.43,2.6-.01,5.19-.02,7.79-.03h.46c2.6,.01,5.19,.02,7.79,.03-.13,5.4-.23,12.73-.13,21.43,.2,17.81,1.12,31.4,1.54,36.97,.8,10.84,1.75,19.14,2.16,22.71,.29,2.49,.62,5.13,1.02,8.07,1.17,8.79,2.57,17.6,4.16,26.2l.34,2.23c2.36,16.5,4.8,31.73,7.47,46.56l.3,1.67c.51,2.81,1.03,5.6,1.55,8.36,1.59,8.41,3.27,16.72,5,24.73l.04,.12c.02,.06,.04,.14,.02,.11,.63,1.18,1.7,2.85,3.46,4.37,3.25,2.81,6.93,3.46,11.5,4.22,2.02,.33,4.82,.66,8.21,.61l14.08,30.02c7.5,16.34,13.29,28.11,13.91,28.66,.47,.41,.96,.76,.96,.76s.39,.27,.83,.52c.99,.56,2.36,1.02,2.78,1.14,3.7,1.08,8.59,1.08,14.8-.05,4.42-.81,8.92-1.79,13.38-2.91,4.21-1.05,8.51-2.27,12.79-3.6,.54-.17,1.08-.34,1.62-.51,2.62-.84,5.39-1.79,8.72-2.99,3.68-1.33,6.95-2.58,9.99-3.83,1.9-.78,3.85-1.6,5.8-2.45,.65-.29,1.3-.57,1.95-.86,2.58-1.15,5.12-2.33,7.55-3.5,1.14-.55,2.26-1.1,3.37-1.66,.56-.28,1.11-.55,1.65-.83,1.65-.84,3.25-1.67,4.75-2.46,1.78-.95,3.59-1.93,5.36-2.92,.9-.5,1.78-1,2.64-1.5l1.38-.8c.51-.3,1.02-.59,1.51-.88,1.84-1.08,3.65-2.17,5.38-3.25,.93-.57,1.82-1.14,2.69-1.68,.6-.38,1.18-.75,1.75-1.12,1.76-1.14,3.47-2.27,5.08-3.37,.43-.29,.83-.57,1.22-.84l.97-.67c1.07-.75,2.11-1.49,3.09-2.21l2.02-1.51c.55-.42,.85-.66,.89-.69,5.49-4.41,10.96-9.1,16.24-13.94,14.75-13.51,24.21-24.63,24.21-24.63,6.56-6.82,14.3-16.11,21.44-28.12,6.22-10.46,10.38-20.27,13.21-28.42-12.29,2.42-30.65,5.15-53,5-9.41-.06-70.68-1.08-120.94-31.63,0,0-31.83-19.39-47.92-44.85-.14-.22-.23-.36-.27-.42-2-3.15-3.76-6.39-3.76-6.39-2.53-4.64-4.12-8.37-4.77-9.95-.77-1.86-1.49-3.75-2.13-5.62-.58-1.7-1.12-3.42-1.59-5.1-.18-.65-.35-1.27-.5-1.89-.77-3.05-1.37-6.1-1.81-9.3-.17-1.24-.3-2.31-.4-3.21-.04-.31-.07-.62-.1-.94l-.04-.43c-.33-3.3-.49-6.61-.47-9.84,0-.48,0-.96-.01-1.44,3.65,.17,7.37,.37,11.14,.62,3.73,.25,7.39,.53,10.98,.84-1.12,17.74-1.68,30.71-1.44,31.46,.21,.63,.54,1.21,.54,1.21,.21,.35,.45,.67,.72,.96,.28,.29,.6,.54,.99,.76,.21,.12,.46,.24,.75,.36,.25,.1,.53,.2,.82,.29,.37,.11,.75,.21,1.14,.3,.46,.1,.97,.2,1.55,.29,.57,.09,1.18,.18,1.84,.27,.67,.09,1.38,.17,2.14,.26l4.06,.44c.74,.08,1.62,.17,2.54,.25,1.84,.16,3.53,.32,5.22,.49,.71,.07,1.42,.14,2.14,.22,.99,.1,1.99,.21,3.03,.33l8.21,.97c5.66,.69,11.28,1.45,16.7,2.27,2.77,.42,5.66,.87,8.58,1.37,5.72,.96,11.59,2.06,17.46,3.26,2.92,.6,5.89,1.23,8.82,1.88l1.43,.32c1.44,.32,2.91,.65,4.44,1,2.04,.47,4.18,.97,6.5,1.52,1.54,.37,3.16,.76,4.88,1.17,2.72,.65,5.7,1.38,8.79,2.15,1.71,.43,3.45,.86,5.21,1.32l3.18,.83c2.69,.7,5.41,1.43,8.32,2.24,2.77,.76,5.62,1.57,8.74,2.47,1.65,.49,3.35,1,5.06,1.51,2.13,.64,4.3,1.3,6.48,1.98,1.77,.55,3.54,1.11,5.31,1.69,4.88,1.57,9.84,3.23,14.73,4.93,7.34,2.55,14.82,5.29,22.21,8.13,3.56,1.37,5.33,2.05,7.41,2.89,5.95,2.42,14.32,6.14,24.36,11.67-9.03-9.63-13.14-13.93-14.97-15.78l-.04-.04c-.29-.3-2.04-2.07-4.3-4.34-1.92-1.93-3.83-3.81-5.83-5.75-1.37-1.32-2.79-2.68-4.29-4.1-2.26-2.14-4.67-4.39-7.36-6.86-.79-.73-1.57-1.44-2.33-2.14-2.36-2.15-4.55-4.1-6.69-5.97l-2.26-1.97c-.76-.66-1.53-1.33-2.3-1.99-1.75-1.5-3.28-2.8-4.67-3.96-1.1-.92-2.21-1.85-3.33-2.77-2.26-1.86-4.68-3.82-7.19-5.82-.83-.66-1.67-1.33-2.53-2l-4.33-3.42,4.25-.31c2-.15,4.08-.29,6.38-.42,2.07-.12,4.19-.23,6.41-.34,1.51-.07,3.03-.12,4.54-.17,7.08,0,14.59,.22,22.47,.73,10.71,.69,16.06,1.14,23.38,2.29,6.38,1,11.62,2.14,15.26,3.01-5.94-4.59-10.91-7.94-14.52-10.24-5.57-3.54-12.64-7.59-15.28-9.1ZM448.86,56.92c10.21-3.9,32.35-4.23,32.35-4.23,4.1-.06,3.67-.08,4.59-.08,12,0,34.8,2.6,60.19,13.83,10.4,4.59,24.67,12.15,39.73,24.51-13.47-2.3-24.77-3.17-32.85-3.52,0,0-42.5-1.86-66.63,11.46-3.38,1.86-8.4,6.34-10.23,9.2-.4,.62-.68,1.13-.87,1.48-1,1.79-1.79,3.77-2.34,5.87l-.26,.99-9.29-.6,.59-1.57c4.79-12.86,11.96-22.73,21.32-29.35,1.77-1.25,9.89-7,22.23-9.91,7.5-1.77,13.98-1.89,18.5-1.65-13.66-6.18-24.87-8.67-32.61-9.79-7.32-1.06-18.21-2.06-24.95-2.36-4.44-.2-8.64-.38-12.4-.79l-.37-.05c-2.43-.27-4.65-.62-6.6-1.04-.51-.18-1.67-.63-1.67-1.22,0-.1,.03-.6,1.57-1.18Zm-4.43,4.21l1.47,.45c2.24,.68,5.28,1.23,9.31,1.7l.45,.04c3.71,.41,7.75,.6,12.64,.81h.21c6.1,.34,12.75,1.01,19.85,2.19,4.13,.68,8.04,1.48,11.73,2.35-9.68-.51-17.68,.27-23.46,1.17-9.88,1.54-17.71,4.13-23.31,5.98-3.5,1.16-6.38,2.23-8.4,3.01-.38,.13-.75,.26-1.13,.39,.22-6.03,.43-12.06,.65-18.09Zm-4.65,22.82c3.04-1.5,7.4-3.47,12.82-5.28,11.83-3.94,21.58-4.73,28.77-5.27,5.05-.38,11.75-.62,19.68-.17-5.77,2.06-17.11,6.99-27.09,18.19-7.83,8.79-11.57,17.78-13.37,23.29l-.3,.91-5.08-.32,.35-1.44c1.27-5.15,2.68-10.24,4.19-15.14l.19-.6,.12-.25c.7-2.36-.01-4.33-2.06-5.7-1.67-1.11-3.55-1.46-5.8-1.87-2.01-.37-4.29-.78-7.13-1.89-2.67-1.05-4.38-1.88-5.23-2.55-.39-.13-.67-.49-.69-.9-.03-.43,.23-.84,.63-1Zm12.72,30.17l-.24,1-5.26-.25,.21-1.37c.42-4,.84-7.99,1.26-11.99,1.9-.01,3.8-.02,5.7-.03l1.72-.07-.48,1.66c-1.04,3.61-2.02,7.33-2.92,11.06Zm-15.11-.93c.48-7.29,.95-14.85,1.39-22.48l.11-1.87,1.68,.83c1.07,.53,2.19,.97,3.2,1.37l.22,.09c3.19,1.24,5.72,1.7,7.76,2.07,1.93,.35,3.45,.62,4.64,1.42,.74,.49,1.41,1.21,.76,2.83l-.18,.45-.44,.21c-.31,.14-1.22,.48-3.04,.48,0,0-.64,.01-1.3-.05-1.6-.16-4.74-1.54-8.39-4.05,.16,6.39,.31,12.78,.47,19.17l-.17,1.1-1.11-.05c-1.38-.06-2.76-.11-4.13-.16l-1.54-.06,.09-1.28Zm-37.15-22.48c.44,7.63,.91,15.2,1.39,22.48l.09,1.28-1.54,.06c-1.37,.05-2.75,.1-4.13,.16l-1.11,.05-.17-1.1c.16-6.39,.31-12.78,.47-19.17-3.64,2.51-6.79,3.9-8.39,4.05-.66,.07-1.3,.05-1.3,.05-1.82,0-2.73-.34-3.04-.48l-.44-.21-.18-.45c-.65-1.61,.02-2.33,.76-2.83,1.18-.79,2.71-1.07,4.64-1.42,2.04-.37,4.57-.83,7.76-2.07l.22-.09c1.02-.4,2.13-.84,3.2-1.37l1.68-.83,.11,1.87Zm-8.22,24.16l-5.26,.25-.24-1c-.9-3.73-1.89-7.45-2.92-11.06l-.48-1.66,1.72,.07c1.9,.01,3.8,.02,5.7,.03,.42,4,.84,7.99,1.26,11.99l.21,1.37Zm7.22-30.91c.41,.17,.66,.57,.64,1-.03,.41-.3,.76-.69,.9-.85,.67-2.56,1.51-5.23,2.55-2.84,1.11-5.12,1.52-7.13,1.89-2.25,.41-4.13,.76-5.8,1.87-2.05,1.37-2.76,3.34-2.06,5.7l.12,.25,.19,.6c1.51,4.9,2.92,10,4.19,15.14l.35,1.44-5.08,.32-.3-.91c-1.8-5.51-5.54-14.5-13.37-23.29-9.98-11.2-21.31-16.13-27.09-18.19,7.93-.45,14.63-.21,19.68,.17,7.18,.54,16.94,1.33,28.77,5.27,5.42,1.81,9.78,3.78,12.82,5.28Zm-4.65-22.82c.22,6.03,.43,12.06,.65,18.09-.38-.13-.75-.26-1.13-.39-2.02-.78-4.9-1.85-8.4-3.01-5.6-1.85-13.43-4.44-23.31-5.98-5.78-.9-13.78-1.68-23.46-1.17,3.69-.87,7.6-1.66,11.73-2.35,7.1-1.18,13.75-1.85,19.85-2.18h.21c4.89-.22,8.93-.41,12.64-.82l.45-.04c4.03-.47,7.07-1.02,9.31-1.7l1.47-.45Zm-31.58,46.96c-1.83-2.86-6.85-7.34-10.23-9.2-24.13-13.31-66.63-11.46-66.63-11.46-8.08,.35-19.37,1.22-32.85,3.52,15.06-12.36,29.33-19.91,39.73-24.51,25.4-11.22,48.2-13.83,60.19-13.83,.92,0,.49,.02,4.59,.08,0,0,22.14,.33,32.35,4.23,1.53,.58,1.57,1.08,1.57,1.18,0,.59-1.16,1.04-1.67,1.22-1.95,.42-4.17,.77-6.6,1.04l-.37,.05c-3.76,.41-7.95,.59-12.4,.79-6.74,.3-17.63,1.3-24.95,2.36-7.73,1.12-18.95,3.61-32.61,9.79,4.52-.24,11-.12,18.5,1.65,12.34,2.91,20.46,8.66,22.23,9.91,9.36,6.62,16.53,16.49,21.32,29.35l.59,1.57-9.29,.6-.26-.99c-.55-2.1-1.34-4.08-2.34-5.87-.19-.35-.47-.86-.87-1.48Zm-20.72,111.33s-.3,.03-.66,.06c-.22,.02-.45,.05-.67,.07l-.15,.02c-1.46,.13-2.91,.28-4.33,.42-17.52,1.73-30.91,3.6-35.45,4.25-15.61,2.24-27.5,4.48-37.16,6.31-27.83,5.27-48.54,10.38-53.96,11.73-10.34,2.58-23.5,6.05-38.71,10.56,5.08-9.93,12.98-22.01,25.29-33.01,3.04-2.72,6.07-5.12,9.03-7.25l3.26-2.57c-6.53-1.22-13.6-2.24-21.16-2.92-15.32-1.39-29.16-1.07-41.06,0,10.65-9.49,20.38-15.44,27.37-19.12,8.5-4.47,17.13-7.8,24.37-10.59,5.72-2.2,10.01-3.63,12.17-4.33,3.97-1.29,7.42-2.3,10.13-3.04,.62-.1,1.25-.21,1.87-.31,2.59,27.17,4.71,47,5.34,50.31,.23,1.18,.7,2.44,1.77,3.24,.42,.31,1.25,.78,4.77,.79,1.21,0,2.91-.05,4.95-.31,.67-.08,1.34-.16,2.01-.24,3.73-.49,7.5-1.05,10.82-1.55l.35-.04c2.14-.32,4.3-.65,6.47-.95,6.45-.93,12.21-1.68,17.6-2.3,12.06-1.36,23.98-2.18,35.42-2.42,10.14-.22,20.44,.03,30.29,.73l.37,.03c5.01,.5,6.33,.88,6.32,1.16,0,.61-6.28,1.25-6.67,1.29Zm7.21-6.47c-13.18-.49-24.66-.35-34.02,0,0,0-20.07,.76-41.4,3.46-1.86,.24-3.81,.49-3.81,.49-3.23,.43-7.74,1.06-13.04,1.88-1.84,.29-3.68,.58-5.52,.88l-2.62,.42c-2.84,.45-5.75,.92-8.61,1.32l-.54,.07c-.96,.21-2.29,.42-3.87,.48-2.48,.09-4.75,.16-5.27-.9-.65-1.35,1.88-3.82,2.56-4.48,1.27-1.24,2.56-1.96,3.39-2.36l2.32-1.47c.39-.24,.76-.48,1.19-.7l1.71-.95c.64-.36,1.28-.72,1.91-1.05,4.41-2.3,9.29-4.41,15.36-6.66,2.36-.89,4.9-1.72,6.95-2.39l2.21-.69c2.15-.66,4.53-1.39,6.88-2.01,5.31-1.46,10.82-2.81,16.39-4,5.56-1.19,11.15-2.27,16.61-3.2,10.89-1.85,22.17-3.39,33.54-4.58,2.7-.27,4.93-.49,6.43-.63l1.27-.12c-.02,9.07-.03,18.14-.05,27.21Zm-18.65,232.01c-3.65,2.55-7.91,2.2-10,2-23.49-2.29-45.21-11.25-45.21-11.25-7.17-2.96-12.45-5.15-19.79-8.75-20.02-9.81-36.24-21.22-44.71-27.94-9.1-7.22-17.17-15.09-17.17-15.09-.18-.17-.48-.46-.84-.83-10.03-9.88-26.42-26.27-38.7-50.22-1.38-2.7-3.39-6.81-5.52-12.01,53.54,5.65,94.25-4.18,117.3-11.73,20.36-6.67,43.02-14.37,65.65-34.47,9.75-8.66,39.14-35.53,44.55-76.69,.77-5.84,.84-11.58,.84-11.58,.01-1.07,0-1.97,0-2.61l6.05-.22c.01,.53,.03,1.27,.04,2.15,0,0,.07,5.27-.36,10.3-.55,5.11-1.67,12.23-4.15,20.44-5.42,17.93-14.03,30.07-21.11,39.88-3.48,4.82-10.83,14.54-24.63,28.15-14.45,14.25-31.65,31.21-58.65,45.75-12.82,6.9-32.56,15.8-58.65,21.11,8.68,9.26,19.76,19.65,33.54,29.81,5.78,4.26,13.76,10.07,25.14,16.27,30.64,16.7,52.71,28.37,52.71,28.37,2.74,1.45,8,4.33,8.69,9.13,.54,3.81-1.94,7.86-5,10Zm9.26-17.34c-8.45-4.56-17.11-9.1-25.98-13.61-5.32-2.71-10.61-5.35-15.85-7.92,0,0-25.48-13.1-47.36-27.36-3.46-2.25-6.41-4.81-7.68-5.94-.29-.26-.51-.46-.64-.58-1.83-1.68-4.66-4.72-8.06-10.28,8.21,1.92,19.49,4.65,32.85,8.21,27.59,7.35,37.83,11.24,57.48,15.25,8.66,1.77,20.22,3.77,34.1,5.18l1.59,.05c-6.81,12.33-13.62,24.67-20.44,37Zm38.71-45.75c-2.63,5.53-12.46,5.73-16.77,5.81-27.36,.53-110.09-25.05-131.04-31.62,15.7-4.79,36.71-13.14,58.65-28.15,14.38-9.84,25.69-20.18,34.32-29.27l.07-.07c2.54-2.39,11.61-11.11,21.81-22.76,15.72-17.96,26.57-34.08,32.27-47.92,6.58-15.94,7.69-31.01,7.74-31.64,.26-3.6,.32-7.27,.17-10.91l-.07-1.88,5.45-.21c.03,.44,.07,1.1,.1,1.89,1.45,30.64-8.23,54.74-12.05,63.1,0,0-1.67,3.53-1.7,3.61-10.72,22.68-58.79,64.32-58.79,64.32-9.22,7.99-17.52,15.08-24.63,21.11,13.06,1.34,31.01,4.71,50.66,13.45,12.17,5.41,22.15,11.62,29.98,17.3,1.96,2.71,6.07,9.09,3.82,13.83Zm15.65-196.8l-.1-1.95c2.07-.07,4.13-.14,6.2-.2l.04,1.98c.27,12.55-.22,27.25-2.31,43.55-1.78,13.89-4.66,35.17-14.78,60.74-5.82,14.69-12.75,27.58-19.94,38.71-1.22-.9-3.8-2.05-8.21-3.52h0c-8.38-2.79-21.66-4.45-25.58-4.82-2-.19-4.02-.33-4.02-.33-.65-.04-1.29-.08-1.94-.12,1.09-.85,2.18-1.71,3.27-2.56,4.51-3.91,10.76-9.61,17.76-16.93,11.87-12.42,27.25-28.16,37.3-50.16,9.04-19.79,13.18-41.46,12.32-64.39Zm12.83,55.99c-.42,5.39-1.3,15.64-2.95,28.53-1.55,12.09-3.36,23.3-4.69,30.4-4.92,26.15-13.6,51.13-19.87,67.4-3.6-2.8-9.31-6.97-16.75-11.26-26.12-15.02-54.02-19.01-53.42-23.53,.17-1.31,2.86-3.55,4.69-4.69,0,0,1.09-.68,2.35-1.17,12.64-5,26.98-2.35,26.98-2.35,10.99,2.04,16.85,6.62,18.39,8,.67,.61,1.27,1.24,1.27,1.24,2.79,2.97,4.21,6.17,4.97,8.35,8.77-20.18,14.86-37.96,19.08-51.94,4.28-14.15,10.82-35.9,13.84-61.16,1.74-14.56,2.52-29.37,2.34-44.1-.01-.66-.02-1.31-.03-1.97,1.77-.03,3.54-.06,5.3-.09,0,.64,0,1.27,.01,1.91,.44,18.79-.07,37.77-1.51,56.42Zm32.08,58.93c-1.34-7.1-3.15-18.31-4.69-30.4-1.65-12.89-2.53-23.14-2.95-28.53-1.45-18.65-1.96-37.63-1.51-56.42,0-.64,.01-1.27,.01-1.91,1.77,.03,3.54,.06,5.3,.09-.01,.66-.02,1.31-.03,1.97-.18,14.73,.6,29.54,2.34,44.1,3.02,25.26,9.56,47.01,13.84,61.16,4.23,13.98,10.31,31.76,19.08,51.94,.75-2.18,2.18-5.38,4.97-8.35,0,0,.6-.64,1.27-1.24,1.54-1.39,7.41-5.97,18.39-8,0,0,14.34-2.66,26.98,2.35,1.26,.5,2.35,1.17,2.35,1.17,1.84,1.14,4.52,3.38,4.69,4.69,.6,4.53-27.3,8.51-53.42,23.53-7.45,4.28-13.15,8.45-16.75,11.26-6.28-16.27-14.96-41.25-19.87-67.4Zm17.5-50.53c10.04,22,25.42,37.73,37.3,50.16,7,7.32,13.25,13.02,17.76,16.93,1.09,.85,2.18,1.71,3.27,2.56-.65,.04-1.29,.08-1.94,.12,0,0-2.02,.14-4.02,.33-3.92,.38-17.2,2.03-25.58,4.82h0c-4.41,1.47-7,2.62-8.21,3.52-7.19-11.13-14.13-24.02-19.94-38.71-10.12-25.58-13-46.86-14.78-60.74-2.09-16.3-2.58-31-2.31-43.55l.04-1.98c2.07,.07,4.13,.14,6.2,.2l-.1,1.95c-.86,22.93,3.28,44.59,12.32,64.39Zm20.1,138.22c-4.31-.08-14.14-.28-16.77-5.81-2.25-4.74,1.86-11.12,3.82-13.83,7.83-5.68,17.81-11.89,29.98-17.3,19.65-8.74,37.6-12.11,50.66-13.45-7.12-6.04-15.41-13.13-24.63-21.11,0,0-48.07-41.64-58.79-64.32-.04-.08-1.7-3.61-1.7-3.61-3.82-8.36-13.5-32.46-12.05-63.1,.04-.79,.08-1.45,.1-1.89l5.45,.21-.07,1.88c-.15,3.64-.09,7.31,.17,10.91,.04,.63,1.16,15.7,7.74,31.64,5.7,13.84,16.56,29.96,32.27,47.92,10.19,11.65,19.27,20.36,21.81,22.76l.07,.07c8.63,9.09,19.95,19.43,34.32,29.27,21.94,15.02,42.95,23.36,58.65,28.15-20.95,6.57-103.68,32.15-131.04,31.62Zm21.95,39.94c-6.81-12.33-13.62-24.67-20.44-37l1.59-.05c13.88-1.41,25.44-3.42,34.1-5.18,19.65-4.01,29.89-7.9,57.48-15.25,13.36-3.56,24.64-6.3,32.85-8.21-3.4,5.56-6.23,8.61-8.06,10.28-.12,.11-.35,.32-.64,.58-1.27,1.13-4.22,3.69-7.68,5.94-21.88,14.26-47.36,27.36-47.36,27.36-5.25,2.57-10.53,5.21-15.85,7.92-8.87,4.51-17.53,9.05-25.98,13.61Zm8.25-152.94c22.63,20.1,45.3,27.8,65.65,34.47,23.05,7.55,63.77,17.38,117.3,11.73-2.13,5.2-4.13,9.31-5.52,12.01-12.29,23.96-28.67,40.34-38.7,50.22-.37,.36-.67,.66-.84,.83,0,0-8.07,7.87-17.17,15.09-8.47,6.72-24.7,18.13-44.71,27.94-7.35,3.6-12.62,5.79-19.79,8.75,0,0-21.72,8.96-45.21,11.25-2.09,.2-6.35,.55-10-2-3.06-2.14-5.54-6.19-5-10,.68-4.81,5.95-7.69,8.69-9.13,0,0,22.06-11.68,52.71-28.37,11.38-6.2,19.36-12.01,25.14-16.27,13.79-10.16,24.87-20.56,33.54-29.81-26.09-5.32-45.84-14.21-58.65-21.11-27-14.54-44.2-31.5-58.65-45.75-13.81-13.62-21.16-23.34-24.63-28.15-7.09-9.81-15.7-21.95-21.11-39.88-2.48-8.21-3.6-15.33-4.15-20.44-.43-5.03-.36-10.3-.36-10.3,0-.89,.02-1.63,.04-2.15l6.05,.22c-.01,.64-.02,1.54,0,2.61,0,0,.08,5.74,.84,11.58,5.41,41.16,34.79,68.02,44.55,76.69Zm-32.97-93.34c-5.79-.42-9.81-.6-17.85-.97-13.75-.62-23.45-.82-26.2-.88-2.49-.05-6.02-.11-10.3-.15h-.68c-4.28,.04-7.82,.1-10.3,.15-2.75,.05-12.45,.26-26.2,.88-8.04,.36-12.05,.55-17.85,.97-1.54,.11-8.31,.61-17.8,1.63-12.37,1.32-24.26,2.96-35.35,4.86-5.65,.95-11.38,2.04-17.51,3.35-2.13,.46-8.41,1.83-17.31,4.16-17.51,4.57-35.25,10.24-43.49,12.93-2.27-7.04-4.42-15.08-6.08-24.03-2.16-11.59-3.02-22.14-3.22-31.2,16.94-7.66,32.24-13.05,44.87-16.82,16.11-4.81,32.54-8.56,48.85-11.15,8.39-1.34,16.78-2.46,24.94-3.32,7.52-.81,15.51-1.52,25.13-2.22,6.53-.48,14.55-1.08,25.21-1.56,7.21-.32,15.41-.68,26.23-.68h.46c10.82,0,19.02,.36,26.23,.68,10.66,.47,18.67,1.08,25.21,1.56,9.63,.7,17.61,1.41,25.13,2.22,8.16,.87,16.55,1.98,24.94,3.32,16.31,2.58,32.74,6.34,48.85,11.15,12.63,3.77,27.93,9.17,44.87,16.82-.2,9.06-1.07,19.61-3.22,31.2-1.66,8.95-3.81,16.99-6.08,24.03-8.24-2.69-25.98-8.36-43.49-12.93-8.9-2.33-15.18-3.7-17.31-4.16-6.13-1.31-11.86-2.41-17.51-3.35-11.09-1.9-22.99-3.54-35.35-4.86-9.49-1.02-16.26-1.52-17.8-1.63Zm15.29,4.41l1.27,.12c1.5,.14,3.72,.36,6.43,.63,11.37,1.19,22.66,2.73,33.54,4.58,5.46,.93,11.05,2,16.61,3.2,5.57,1.19,11.08,2.54,16.39,4,2.35,.62,4.73,1.35,6.88,2.01l2.21,.69c2.05,.67,4.59,1.51,6.95,2.39,6.07,2.24,10.95,4.36,15.36,6.66,.64,.34,1.28,.7,1.91,1.05l1.71,.95c.43,.23,.8,.46,1.19,.7l2.32,1.47c.84,.4,2.12,1.12,3.39,2.36,.68,.66,3.21,3.13,2.56,4.48-.51,1.06-2.78,.98-5.27,.9-1.58-.05-2.91-.27-3.87-.48l-.54-.07c-2.86-.4-5.77-.86-8.61-1.32l-2.62-.42c-1.84-.3-3.68-.59-5.52-.88-5.3-.82-9.81-1.45-13.04-1.88,0,0-1.94-.26-3.81-.49-21.33-2.7-41.4-3.46-41.4-3.46-9.36-.35-20.84-.49-34.02,0-.02-9.07-.03-18.14-.05-27.21Zm161.93,21.34c-7.56,.68-14.62,1.71-21.16,2.92l3.26,2.57c2.96,2.13,5.99,4.53,9.03,7.25,12.31,11,20.21,23.08,25.29,33.01-15.21-4.51-28.37-7.98-38.71-10.56-5.42-1.35-26.13-6.46-53.96-11.73-9.66-1.83-21.55-4.07-37.16-6.31-4.54-.65-17.93-2.53-35.45-4.25-1.42-.14-2.86-.28-4.33-.42l-.15-.02c-.22-.02-.45-.05-.67-.07-.37-.04-.64-.06-.66-.06-.39-.03-6.66-.68-6.67-1.29,0-.28,1.31-.66,6.32-1.16l.37-.03c9.84-.7,20.15-.95,30.29-.73,11.44,.24,23.36,1.06,35.42,2.42,5.39,.62,11.15,1.37,17.6,2.3,2.17,.3,4.33,.63,6.47,.95l.35,.04c3.33,.5,7.1,1.06,10.82,1.55,.67,.08,1.34,.16,2.01,.24,2.05,.25,3.75,.31,4.95,.31,3.52,0,4.35-.47,4.77-.79,1.07-.8,1.55-2.05,1.77-3.24,.63-3.31,2.75-23.13,5.34-50.31,.62,.1,1.25,.21,1.87,.31,2.71,.75,6.16,1.75,10.13,3.04,2.16,.7,6.44,2.13,12.17,4.33,7.24,2.78,15.87,6.11,24.37,10.59,7,3.68,16.73,9.63,27.37,19.12-11.9-1.07-25.74-1.39-41.06,0Z"/><path d="M838.93,252.49l.02-.7-.05-1.15c.09-2.15,.13-4.1,.13-5.95,0-32.92-11.14-64.84-33.12-94.88-5.31-7.27-11.31-14.47-17.82-21.4-19.25-20.83-43.68-39.95-72.61-56.83C636.43,25.42,531.32,0,419.51,0S202.6,25.42,123.53,71.58c-28.89,16.86-53.3,35.96-72.54,56.77-6.55,6.97-12.56,14.19-17.89,21.47C11.14,179.85,0,211.77,0,244.7c0,2.01,.04,3.99,.12,5.88,0,.22-.02,.45-.02,.68l-.02,.71,.03,.54c0,.23,.01,.46,.02,.61-.09,2.15-.13,4.1-.13,5.95,0,32.92,11.14,64.84,33.12,94.88,5.31,7.27,11.31,14.46,17.79,21.37l.46,.6,.13-.11c19.16,20.59,43.4,39.51,72.04,56.22,79.06,46.16,184.17,71.58,295.97,71.58s216.92-25.42,295.98-71.58c28.61-16.7,52.82-35.59,71.97-56.16l.08,.07,.49-.52c6.54-6.96,12.56-14.18,17.89-21.47,21.97-30.04,33.11-61.96,33.11-94.88,0-2.01-.04-4-.12-5.88,0-.23,.02-.46,.02-.69ZM33.11,342.86c21.17,29.22,51.46,55.45,90.02,77.96,79.19,46.23,184.44,71.69,296.38,71.69s217.2-25.46,296.38-71.69c38.56-22.51,68.85-48.74,90.03-77.96,13.14-18.14,22.46-37.11,27.79-56.51-4.43,23.06-14.5,45.54-30.02,66.95-4.99,6.89-10.6,13.73-16.68,20.34l-.33,.22-.1,.09c-19.06,20.28-43.18,38.92-71.69,55.41-78.89,45.62-183.79,70.75-295.39,70.75s-216.49-25.13-295.38-70.75c-28.53-16.51-52.66-35.16-71.77-55.49l-.39-.28c-6.06-6.6-11.66-13.42-16.64-20.29-15.53-21.43-25.6-43.93-30.03-67.01,5.33,19.43,14.66,38.42,27.81,56.57Zm681.39,74.25c-78.78,45.55-183.54,70.64-294.99,70.64s-216.21-25.09-294.98-70.64c-38.24-22.12-68.26-47.86-89.21-76.5-20.31-27.77-31.24-57.19-32.49-87.42l.07-1.71-.02-.39h-.04l-.02-.43c1.25-30.3,12.19-59.74,32.5-87.5,20.95-28.64,50.96-54.38,89.2-76.5C203.3,41.09,308.07,16,419.51,16s216.21,25.09,294.98,70.64c38.24,22.12,68.26,47.86,89.21,76.5,20.31,27.77,31.25,57.19,32.49,87.43l-.07,1.76,.08,.77c-1.25,30.3-12.19,59.74-32.5,87.5-20.95,28.64-50.96,54.38-89.2,76.5Zm91.42-256.22c-21.17-29.22-51.45-55.45-90.02-77.96C636.71,36.71,531.45,11.25,419.51,11.25S202.32,36.71,123.13,82.94c-38.56,22.51-68.85,48.74-90.03,77.96-13.14,18.14-22.46,37.11-27.79,56.52,4.43-23.06,14.5-45.54,30.02-66.96,5.1-7.04,10.85-14.03,17.08-20.77l.03-.03c19.06-20.27,43.18-38.92,71.69-55.41C203.02,28.62,307.92,3.49,419.51,3.49s216.49,25.12,295.39,70.75c28.53,16.51,52.66,35.16,71.71,55.44l.08,.08c6.21,6.73,11.93,13.69,17.01,20.69,15.53,21.43,25.6,43.93,30.03,67.01-5.33-19.43-14.66-38.42-27.81-56.57Z"/></g></g></svg>